<svg width="1770" height="2478" xmlns="http://www.w3.org/2000/svg" preserveAspectRatio="none" version="1.1">
 <defs>
  <filter id="svg_1_blur">
   <feGaussianBlur stdDeviation="1" in="SourceGraphic"/>
  </filter>
 </defs>
 <g>
  <title>Layer 1</title>
  <path stroke="null" filter="url(#svg_1_blur)" id="svg_1" d="m852.48376,484.06176c138.0874,-15.21365 295.72726,45.58636 385.49208,154.85929c94.76143,115.3573 98.83664,253.46682 87.24783,396.47042c2.33555,5.12521 15.91838,3.75655 27.03581,12.43993c14.3406,11.20048 23.35906,30.56926 25.15386,48.88971c8.02768,81.92331 -20.38492,183.81054 -67.47836,250.40917c-17.42146,24.63778 -28.34856,27.70817 -54.62662,31.39738c-7.6399,17.81084 -14.10402,37.33979 -22.0392,54.57549c-26.99491,58.67785 -60.99112,120.41335 -105.48575,166.95158c-2.80871,80.73664 11.21705,193.48765 94.17443,226.95805c69.62358,28.72012 146.08306,46.19243 217.71846,68.87003c143.14806,44.4088 284.18825,120.83196 302.99006,288.76635c1.174,10.44699 24.04923,124.10801 -16.77398,97.80855c-9.97901,-6.44291 -6.58152,-39.93151 -8.21801,-55.52919c-4.18015,-39.85871 -9.97901,-81.35545 -27.55345,-118.21111c-69.63959,-144.31037 -249.08207,-177.87177 -385.20213,-221.17035c-44.55155,-13.90505 -101.06547,-27.7737 -136.8547,-58.38664c-60.38634,-51.67072 -62.91933,-129.0403 -69.74455,-200.42198c-50.91962,38.38448 -113.73222,79.48082 -178.61355,86.03294c-1.28251,0.50961 -0.76488,0.40041 -2.30176,0.58241c-97.99883,11.81202 -174.56326,-25.95367 -249.95368,-84.95912c-1.53154,59.47866 -8.56486,126.76527 -45.06029,175.59674c-76.16953,101.92182 -366.82191,109.87536 -490.16849,231.52634c-50.19031,49.52309 -70.05227,115.89967 -75.13606,185.47951c-1.05127,14.37825 1.65249,44.02659 -7.0529,55.8932c-2.8852,3.94947 -6.31115,6.0243 -11.12455,6.47932c-3.23029,0.2912 -6.40542,-1.18302 -8.84237,-3.23965c-4.56793,-3.87667 -5.20474,-8.82715 -5.53382,-14.57846c-1.65072,-28.75651 3.36546,-61.15309 7.76619,-89.5274c36.28908,-233.96518 265.47183,-260.70146 447.506,-323.47437c39.29523,-13.54104 85.93509,-29.06591 113.98659,-62.0085c40.17217,-47.15705 47.70001,-129.18591 44.06417,-189.37438c-66.78998,-81.06425 -86.67861,-130.55093 -126.80099,-225.35096c-5.50535,-1.01012 -21.30634,-3.53814 -25.40467,-6.31551c-34.8198,-23.59126 -64.01507,-95.05301 -76.56976,-134.15278c-13.8372,-43.09473 -29.16147,-126.47952 -10.53933,-169.11924c9.83492,-22.51744 27.29018,-24.90897 46.00305,-30.68211c0.63503,-14.7732 -4.90946,-60.80911 -5.63876,-79.51722c-4.65687,-119.46693 21.87555,-236.92819 101.1971,-327.63861c77.18166,-88.26065 198.6196,-139.70569 312.38207,-146.32879l0.00002,-0.00003zm51.16331,1201.27968c29.81784,0.63701 76.37943,-17.58152 102.94742,-31.04975c118.96187,-60.33408 182.00571,-180.16502 227.06066,-302.46755c35.85683,-8.84354 41.10782,-1.81276 62.99582,-39.93697c35.9102,-62.54906 58.51683,-141.75505 51.51551,-214.80387c-0.97122,-10.13758 -12.33412,-22.6685 -20.7976,-25.36943c-6.87324,-2.93935 -32.37396,-5.27081 -32.52338,-15.07351c-0.50518,-33.24836 5.35594,-66.48214 4.92547,-99.91615c4.59639,-146.93669 -32.79909,-272.84471 -153.53797,-361.89526c-67.49616,-49.78335 -140.00316,-72.03507 -222.70974,-80.63108c-11.26685,-1.17028 -40.24155,-2.92843 -51.05125,-1.21578c-31.61976,4.79761 -63.10432,5.74039 -94.62447,12.78937c-92.30849,20.64463 -181.34756,76.81083 -237.85436,154.50802c-60.32763,82.94617 -76.57687,192.13173 -70.52366,293.17447c1.10285,18.38596 8.58977,64.20711 5.4431,78.8438c-7.51183,34.94462 -70.37423,-15.62316 -53.1271,104.33518c7.10626,49.43027 35.47084,153.56524 76.06102,183.90154c10.33299,7.72058 25.83158,4.38992 34.06381,14.7459c10.72255,13.48644 34.93187,82.40925 46.10977,104.32244c20.9488,41.05993 45.74512,82.04706 76.43991,116.22728c58.55596,65.19357 159.84199,123.5256 249.18702,109.51136l0,-0.00001z" fill="rgb(254,254,254)"/>
  <path id="svg_2" d="m9.52263,2301.02001c3.85,-0.05 6.545,-0.37 9.904,1.56c4.068,4.47 2.507,26.81 2.476,33.67l-0.272,75.86c-0.01,4.48 -1.985,41.81 4.139,44.61c2.187,1 19.154,0.5 23.327,0.47l73.026,-0.05c11.594,-0.05 68.707,-6.89 49.422,18.4l-99.879,0.06c-17.043,0.01 -34.827,0.7 -51.676,-1.28c-3.945,-0.46 -10.892,-5.66 -12.49,-9.18c-4.423,-9.75 -3.45,-26.38 -3.319,-36.64c0.48,-37.47 0.036,-74.53 -0.078,-111.97c-0.022,-7.47 0.03,-10.41 5.42,-15.51z" fill="rgb(254,254,254)"/>
  <path id="svg_3" d="m21.74148,3.30951c8.148,-0.562 22.335,-0.116 31.1,-0.111l60.157,0.027c8.129,-0.002 50.634,-0.65 56.349,0.26c7.535,4.556 7.443,16.852 -0.815,17.363c-28.863,1.786 -59.213,-0.307 -88.108,0.352c-9.909,0.226 -49.244,-1.41 -55.857,1.586c-4.313,4.888 -3.103,12.647 -2.991,19.361l-0.076,98.102c-0.006,8.577 1.941,24.921 -0.18,32.636c-0.685,2.49 -1.927,4.352 -4.291,5.507c-2.001,0.976 -5.528,0.828 -7.56,0.054c-1.659,-0.632 -3.9,-2.515 -4.592,-4.19c-1.527,-3.695 -2.232,-150.785 0.818,-157.862c2.723,-6.317 10.1,-10.466 16.046,-13.085z" fill="rgb(254,254,254)"/>
  <path id="svg_4" d="m1751.01465,2294.86758c15.92,-0.56 14.92,9.97 14.65,23.31c-0.25,12.58 -0.48,24.82 -0.44,37.4l0.24,58.1c0.26,62.81 -2.35,55.62 -62.31,55.6l-90.88,-0.01c-6.15,0.2 -15.08,-0.25 -16.25,-9.22c-0.45,-3.5 4.97,-8.65 8.85,-8.9c11.1,-0.73 22.56,-0.34 33.77,-0.31l64.57,0.09c11.14,0.02 22.56,0.56 33.67,-0.07c2.1,-0.12 8,-0.51 9.26,-2.27c3.46,-4.81 1.52,-104.32 1.51,-120.25c-0.01,-8.86 -1.34,-20.22 0.51,-28.76c0.4,-1.84 1.64,-3.33 2.85,-4.71z" fill="rgb(254,254,254)"/>
  <path id="svg_5" d="m1601.41049,3.82378c19.71,-0.195 141.44,-2.404 150.44,1.341c5.47,2.275 10.76,7.675 12.68,13.272c1.53,4.472 2.09,9.302 2.3,14.007c1.01,23.544 -0.3,47.641 -0.21,71.245c0.08,21.798 1.91,45.223 -0.15,66.863c-0.27,2.778 -1.33,5.237 -2.54,7.718c-3.9,1.37 -6.96,1.42 -10.67,-0.468c-7.18,-7.111 -4.1,-30.404 -4.07,-40.792l-0.01,-75.731c0.05,-10.414 1.4,-23.173 -1.33,-33.246c-0.32,-1.192 -1.29,-3.944 -2.32,-4.627c-9.6,-6.39 -132.49,3.467 -144.16,-4.015c-1.66,-1.065 -2.75,-2.631 -3.08,-4.589c-0.66,-3.866 1.1,-7.817 3.12,-10.978z" fill="rgb(254,254,254)"/>
 </g>
</svg>