<svg version="1.1" xmlns="http://www.w3.org/2000/svg" style="display: block;" viewBox="0 0 1365 2048" width="1024" height="1536" preserveAspectRatio="none"><path transform="translate(0,0)" fill="rgb(254,254,254)" d="M 661.487 499.558 C 739.117 491.199 827.739 524.605 878.203 584.644 C 931.476 648.026 933.767 723.909 927.252 802.481 C 928.565 805.297 936.201 804.545 942.451 809.316 C 950.513 815.47 955.583 826.112 956.592 836.178 C 961.105 881.19 945.132 937.171 918.657 973.763 C 908.863 987.3 902.72 988.987 887.947 991.014 C 883.652 1000.8 880.018 1011.53 875.557 1021 C 860.381 1053.24 841.269 1087.16 816.255 1112.73 C 814.676 1157.09 822.561 1219.04 869.198 1237.43 C 908.339 1253.21 951.323 1262.81 991.595 1275.27 C 1072.07 1299.67 1151.36 1341.66 1161.93 1433.93 C 1162.59 1439.67 1175.45 1502.12 1152.5 1487.67 C 1146.89 1484.13 1148.8 1465.73 1147.88 1457.16 C 1145.53 1435.26 1142.27 1412.46 1132.39 1392.21 C 1093.24 1312.92 992.361 1294.48 915.837 1270.69 C 890.791 1263.05 859.02 1255.43 838.9 1238.61 C 804.952 1210.22 803.528 1167.71 799.691 1128.49 C 771.065 1149.58 735.753 1172.16 699.278 1175.76 C 698.557 1176.04 698.848 1175.98 697.984 1176.08 C 642.891 1182.57 599.848 1161.82 557.465 1129.4 C 556.604 1162.08 552.65 1199.05 532.133 1225.88 C 489.312 1281.88 325.913 1286.25 256.57 1353.09 C 228.354 1380.3 217.188 1416.77 214.33 1455 C 213.739 1462.9 215.259 1479.19 210.365 1485.71 C 208.743 1487.88 206.817 1489.02 204.111 1489.27 C 202.295 1489.43 200.51 1488.62 199.14 1487.49 C 196.572 1485.36 196.214 1482.64 196.029 1479.48 C 195.101 1463.68 197.921 1445.88 200.395 1430.29 C 220.796 1301.74 349.638 1287.05 451.974 1252.56 C 474.065 1245.12 500.285 1236.59 516.055 1218.49 C 538.639 1192.58 542.871 1147.51 540.827 1114.44 C 503.279 1069.9 492.098 1042.71 469.542 990.623 C 466.447 990.068 457.564 988.679 455.26 987.153 C 435.685 974.191 419.272 934.927 412.214 913.444 C 404.435 889.766 395.82 843.951 406.289 820.523 C 411.818 808.151 421.631 806.837 432.151 803.665 C 432.508 795.548 429.391 770.254 428.981 759.975 C 426.363 694.335 441.279 629.797 485.872 579.957 C 529.262 531.463 597.532 503.197 661.487 499.558 z M 690.25 1159.59 C 707.013 1159.94 733.189 1149.93 748.125 1142.53 C 815.003 1109.38 850.445 1043.54 875.774 976.342 C 895.932 971.483 898.884 975.346 911.189 954.399 C 931.377 920.032 944.086 876.513 940.15 836.377 C 939.604 830.807 933.216 823.922 928.458 822.438 C 924.594 820.823 910.258 819.542 910.174 814.156 C 909.89 795.888 913.185 777.628 912.943 759.258 C 915.527 678.525 894.504 609.346 826.627 560.418 C 788.682 533.065 747.92 520.839 701.424 516.116 C 695.09 515.473 678.801 514.507 672.724 515.448 C 654.948 518.084 637.248 518.602 619.528 522.475 C 567.634 533.818 517.578 564.678 485.811 607.368 C 451.896 652.942 442.761 712.933 446.164 768.45 C 446.784 778.552 450.993 803.728 449.224 811.77 C 445.001 830.97 409.661 803.186 419.357 869.096 C 423.352 896.255 439.298 953.471 462.117 970.139 C 467.926 974.381 476.639 972.551 481.267 978.241 C 487.295 985.651 500.905 1023.52 507.189 1035.56 C 518.966 1058.12 532.906 1080.64 550.162 1099.42 C 583.081 1135.24 640.022 1167.29 690.25 1159.59 z"/><path transform="translate(0,0)" fill="rgb(254,254,254)" d="M 157.881 1427.64 C 161.731 1427.59 164.426 1427.27 167.785 1429.2 C 171.853 1433.67 170.292 1456.01 170.261 1462.87 L 169.989 1538.73 C 169.979 1543.21 168.004 1580.54 174.128 1583.34 C 176.315 1584.34 193.282 1583.84 197.455 1583.81 L 270.481 1583.76 C 282.075 1583.71 339.188 1576.87 319.903 1602.16 L 220.024 1602.22 C 202.981 1602.23 185.197 1602.92 168.348 1600.94 C 164.403 1600.48 157.456 1595.28 155.858 1591.76 C 151.435 1582.01 152.408 1565.38 152.539 1555.12 C 153.019 1517.65 152.575 1480.59 152.461 1443.15 C 152.439 1435.68 152.491 1432.74 157.881 1427.64 z"/><path transform="translate(0,0)" fill="rgb(254,254,254)" d="M 170.285 450.946 C 178.433 450.384 192.62 450.83 201.385 450.835 L 261.542 450.862 C 269.671 450.86 312.176 450.212 317.891 451.122 C 325.426 455.678 325.334 467.974 317.076 468.485 C 288.213 470.271 257.863 468.178 228.968 468.837 C 219.059 469.063 179.724 467.427 173.111 470.423 C 168.798 475.311 170.008 483.07 170.12 489.784 L 170.044 587.886 C 170.038 596.463 171.985 612.807 169.864 620.522 C 169.179 623.012 167.937 624.874 165.573 626.029 C 163.572 627.005 160.045 626.857 158.013 626.083 C 156.354 625.451 154.113 623.568 153.421 621.893 C 151.894 618.198 151.189 471.108 154.239 464.031 C 156.962 457.714 164.339 453.565 170.285 450.946 z"/><path transform="translate(0,0)" fill="rgb(254,254,254)" d="M 1198.12 1427.76 C 1214.04 1427.2 1213.04 1437.73 1212.77 1451.07 C 1212.52 1463.65 1212.29 1475.89 1212.33 1488.47 L 1212.57 1546.57 C 1212.83 1609.38 1210.22 1602.19 1150.26 1602.17 L 1059.38 1602.16 C 1053.23 1602.36 1044.3 1601.91 1043.13 1592.94 C 1042.68 1589.44 1048.1 1584.29 1051.98 1584.04 C 1063.08 1583.31 1074.54 1583.7 1085.75 1583.73 L 1150.32 1583.82 C 1161.46 1583.84 1172.88 1584.38 1183.99 1583.75 C 1186.09 1583.63 1191.99 1583.24 1193.25 1581.48 C 1196.71 1576.67 1194.77 1477.16 1194.76 1461.23 C 1194.75 1452.37 1193.42 1441.01 1195.27 1432.47 C 1195.67 1430.63 1196.91 1429.14 1198.12 1427.76 z"/><path transform="translate(0,0)" fill="rgb(254,254,254)" d="M 1047.18 451.006 C 1066.89 450.811 1188.62 448.602 1197.62 452.347 C 1203.09 454.622 1208.38 460.022 1210.3 465.619 C 1211.83 470.091 1212.39 474.921 1212.6 479.626 C 1213.61 503.17 1212.3 527.267 1212.39 550.871 C 1212.47 572.669 1214.3 596.094 1212.24 617.734 C 1211.97 620.512 1210.91 622.971 1209.7 625.452 C 1205.8 626.822 1202.74 626.872 1199.03 624.984 C 1191.85 617.873 1194.93 594.58 1194.96 584.192 L 1194.95 508.461 C 1195 498.047 1196.35 485.288 1193.62 475.215 C 1193.3 474.023 1192.33 471.271 1191.3 470.588 C 1181.7 464.198 1058.81 474.055 1047.14 466.573 C 1045.48 465.508 1044.39 463.942 1044.06 461.984 C 1043.4 458.118 1045.16 454.167 1047.18 451.006 z"/></svg>